<svg width="100" height="87" viewBox="0 0 100 87" fill="none" xmlns="http://www.w3.org/2000/svg">
<path d="M69.25 16.9091V17.0255C68.3391 16.959 67.4281 16.9091 66.5 16.9091H44.5C41.6641 16.9091 38.9141 17.2581 36.2844 17.9063C36.2672 17.5739 36.25 17.2415 36.25 16.9091C36.25 8.1009 43.6406 0.95459 52.75 0.95459C61.8594 0.95459 69.25 8.1009 69.25 16.9091ZM66.5 22.2273C67.1016 22.2273 67.7031 22.2439 68.2875 22.2772C69.0094 22.327 69.7312 22.3935 70.4531 22.4932C73.4781 19.0863 77.9812 16.9091 83 16.9091H84.9766C86.7641 16.9091 88.0703 18.5378 87.6406 20.2164L85.2688 29.3902C87.9844 31.8499 90.2016 34.8414 91.7141 38.1819H94C97.0422 38.1819 99.5 40.5584 99.5 43.5V59.4546C99.5 62.3962 97.0422 64.7728 94 64.7728H88.5C86.9359 66.7837 85.0797 68.5786 83 70.091V80.7273C83 83.6689 80.5422 86.0455 77.5 86.0455H72C68.9578 86.0455 66.5 83.6689 66.5 80.7273V75.4091H44.5V80.7273C44.5 83.6689 42.0422 86.0455 39 86.0455H33.5C30.4578 86.0455 28 83.6689 28 80.7273V70.091C22.0016 65.7367 17.9109 59.0723 17.1375 51.4773H12.1875C5.725 51.4773 0.5 46.425 0.5 40.1762C0.5 33.9273 5.725 28.875 12.1875 28.875H12.875C15.1609 28.875 17 30.6533 17 32.8637C17 35.0741 15.1609 36.8523 12.875 36.8523H12.1875C10.2969 36.8523 8.75 38.3481 8.75 40.1762C8.75 42.0043 10.2969 43.5 12.1875 43.5H17.55C19.6297 33.5617 27.4672 25.6343 37.5391 23.0915C39.7562 22.5265 42.0938 22.2273 44.5 22.2273H66.5ZM77.5 44.8296C77.5 43.7717 77.0654 42.7572 76.2918 42.0092C75.5182 41.2612 74.469 40.841 73.375 40.841C72.281 40.841 71.2318 41.2612 70.4582 42.0092C69.6846 42.7572 69.25 43.7717 69.25 44.8296C69.25 45.8874 69.6846 46.902 70.4582 47.65C71.2318 48.398 72.281 48.8182 73.375 48.8182C74.469 48.8182 75.5182 48.398 76.2918 47.65C77.0654 46.902 77.5 45.8874 77.5 44.8296Z" fill="#E8FFAB"/>
</svg>
