<svg width="36" height="36" viewBox="0 0 36 36" fill="none" xmlns="http://www.w3.org/2000/svg">
<rect x="0.5" y="0.5" width="35" height="35" rx="17.5" fill="#FCFCFC"/>
<rect x="0.5" y="0.5" width="35" height="35" rx="17.5" stroke="#8CC004"/>
<path d="M28.2712 17.7662C27.4626 15.6746 26.0589 13.8658 24.2334 12.5633C22.408 11.2608 20.2409 10.5218 18 10.4375C15.7591 10.5218 13.592 11.2608 11.7666 12.5633C9.94113 13.8658 8.53736 15.6746 7.72875 17.7662C7.67414 17.9173 7.67414 18.0827 7.72875 18.2338C8.53736 20.3254 9.94113 22.1342 11.7666 23.4367C13.592 24.7392 15.7591 25.4782 18 25.5625C20.2409 25.4782 22.408 24.7392 24.2334 23.4367C26.0589 22.1342 27.4626 20.3254 28.2712 18.2338C28.3259 18.0827 28.3259 17.9173 28.2712 17.7662ZM18 24.1875C14.3562 24.1875 10.5062 21.4856 9.11062 18C10.5062 14.5144 14.3562 11.8125 18 11.8125C21.6437 11.8125 25.4937 14.5144 26.8894 18C25.4937 21.4856 21.6437 24.1875 18 24.1875Z" fill="#8CC004"/>
<path d="M18 13.875C17.1842 13.875 16.3866 14.1169 15.7083 14.5702C15.0299 15.0234 14.5012 15.6677 14.189 16.4214C13.8768 17.1752 13.7951 18.0046 13.9543 18.8047C14.1134 19.6049 14.5063 20.3399 15.0832 20.9168C15.6601 21.4937 16.3951 21.8866 17.1953 22.0457C17.9954 22.2049 18.8248 22.1232 19.5786 21.811C20.3323 21.4988 20.9766 20.9701 21.4298 20.2917C21.8831 19.6134 22.125 18.8158 22.125 18C22.125 16.906 21.6904 15.8568 20.9168 15.0832C20.1432 14.3096 19.094 13.875 18 13.875ZM18 20.75C17.4561 20.75 16.9244 20.5887 16.4722 20.2865C16.0199 19.9844 15.6675 19.5549 15.4593 19.0524C15.2512 18.5499 15.1967 17.9969 15.3028 17.4635C15.409 16.9301 15.6709 16.4401 16.0555 16.0555C16.4401 15.6709 16.9301 15.4089 17.4635 15.3028C17.997 15.1967 18.5499 15.2512 19.0524 15.4593C19.5549 15.6675 19.9844 16.0199 20.2865 16.4722C20.5887 16.9244 20.75 17.4561 20.75 18C20.75 18.7293 20.4603 19.4288 19.9445 19.9445C19.4288 20.4603 18.7293 20.75 18 20.75Z" fill="#8CC004"/>
</svg>
