<svg width="36" height="36" viewBox="0 0 36 36" fill="none" xmlns="http://www.w3.org/2000/svg">
<rect x="0.5" y="0.5" width="35" height="35" rx="17.5" fill="#8CC004"/>
<rect x="0.5" y="0.5" width="35" height="35" rx="17.5" stroke="#8CC004"/>
<path d="M9.09375 23.0859L10.2109 21.9766C8.98767 20.8782 8.02655 19.5193 7.39844 18C8.98438 14.0391 13.3594 10.9688 17.5 10.9688C18.5655 10.9831 19.6214 11.1732 20.625 11.5312L21.8359 10.3125C20.4631 9.7319 18.9904 9.42409 17.5 9.40625C14.9535 9.50201 12.4909 10.3418 10.4166 11.8219C8.3422 13.302 6.747 15.3575 5.82813 17.7344C5.76607 17.906 5.76607 18.094 5.82813 18.2656C6.52207 20.107 7.64096 21.7586 9.09375 23.0859Z" fill="#FCFCFC"/>
<path d="M14.375 17.7891C14.4293 17.0404 14.7513 16.3363 15.2821 15.8055C15.8129 15.2748 16.517 14.9528 17.2656 14.8984L18.6797 13.4766C17.8873 13.2679 17.0541 13.2706 16.2631 13.4844C15.4721 13.6982 14.7509 14.1156 14.1716 14.695C13.5922 15.2744 13.1748 15.9955 12.961 16.7865C12.7472 17.5775 12.7445 18.4108 12.9531 19.2031L14.375 17.7891ZM29.1719 17.7344C28.276 15.4009 26.7173 13.3805 24.6875 11.9219L28.4375 8.16406L27.3359 7.0625L6.5625 27.8359L7.66406 28.9375L11.6484 24.9531C13.425 25.995 15.4407 26.5601 17.5 26.5938C20.0465 26.498 22.5091 25.6582 24.5834 24.1781C26.6578 22.698 28.253 20.6425 29.1719 18.2656C29.2339 18.094 29.2339 17.906 29.1719 17.7344ZM20.625 18C20.6217 18.547 20.4749 19.0835 20.1993 19.5559C19.9237 20.0284 19.5289 20.4202 19.0544 20.6922C18.5799 20.9643 18.0423 21.107 17.4953 21.1062C16.9483 21.1054 16.4112 20.961 15.9375 20.6875L20.1875 16.4375C20.4684 16.9107 20.6193 17.4497 20.625 18ZM17.5 25.0312C15.861 25.0026 14.253 24.5792 12.8125 23.7969L14.7969 21.8125C15.6995 22.4388 16.7934 22.7281 17.8876 22.6301C18.9818 22.532 20.0068 22.0527 20.7836 21.2758C21.5605 20.499 22.0398 19.474 22.1379 18.3798C22.236 17.2856 21.9466 16.1917 21.3203 15.2891L23.5625 13.0469C25.3551 14.2773 26.757 15.9964 27.6016 18C26.0156 21.9609 21.6406 25.0312 17.5 25.0312Z" fill="#FCFCFC"/>
</svg>
